<svg viewBox="0 0 140 40" xmlns="http://www.w3.org/2000/svg" role="img" aria-label="Deepal">
  <path fill="currentColor" d="M20 4c-2 1-4 2-6 3-3 1.5-6 3-8 4.5v22c0 1 .8 1.5 2 1.5 1.2 0 2-.5 2.5-1.5 2-4 8-16 10-20 .5-1 1-1.5 2-1.5s1.5.5 2 1.5c2 4 8 16 10 20 .5 1 1.3 1.5 2.5 1.5 1.2 0 2-.5 2-1.5V11.5C34 10 31 8.5 28 7 26 6 24 5 22 4c-.8-.4-1.5-.6-2-.6s-1.2.2-2 .6z"/>
  <text x="42" y="26" fill="currentColor" font-family="Arial, Helvetica, sans-serif" font-size="20" font-weight="700" letter-spacing="0.06em">DEEPAL</text>
</svg>
