<svg viewBox="0 0 251 70" xmlns="http://www.w3.org/2000/svg" role="img" aria-label="Deepal">
  <path fill="#FFFFFF" d="M51.29 3C48.65 4.15 46.01 5.32 43.38 6.49 40.38 7.82 34.38 10.49 31.33 11.69c-2.54.99-3.78.99-6.32 0C21.95 10.49 15.96 7.82 12.96 6.49 10.32 5.32 7.69 4.15 5.05 3 4.28 2.66 3.53 2.34 2.81 2.04 2.54 1.93 2.09 1.75 1.9 2.13c-.18.36.24.61.47.76.61.39 1.22.75 1.84 1.11 2.38 1.39 4.86 2.76 7.27 4.1 3.01 1.67 9.07 4.94 11.93 6.86 1.84 1.24 2.25 2.23 2.42 4.41.33 4.41.57 13.26.71 17.68.2 5.9.39 11.79.59 17.69.07 2.08.14 4.17.22 6.25.05 1.33.1 2.84.2 4.17.03.43.02 1.43.63 1.43.61 0 .59-1 .62-1.43.1-1.33.16-2.84.2-4.17.07-2.08.15-4.17.22-6.25.2-5.9.4-11.79.6-17.69.15-4.42.38-13.27.71-17.68.16-2.18.58-3.17 2.42-4.41 2.86-1.92 8.92-5.19 11.93-6.86 2.41-1.33 4.89-2.71 7.27-4.1.62-.36 1.23-.73 1.84-1.11.23-.15.65-.4.47-.76-.19-.38-.64-.2-.91-.09C52.82 2.34 52.07 2.66 51.29 3zM30.54 66.47C29.78 68.11 29.27 69.14 28.18 69.14c-1.09 0-1.6-1.03-2.36-2.67C22.18 58.61 2.78 10.78.55 4.53-.62 1.26-.05.33 3.49.17 8.44-.06 47.89-.06 52.84.17c3.55.16 4.11 1.09 2.95 4.36C53.56 10.79 34.16 58.61 30.54 66.47z"/>
  <path fill="#FFFFFF" fill-rule="evenodd" d="M250.34 45.39H233.05l-.32-.04-.24-.14-.14-.22-.04-.3V20.76h-3.78v24.93l.18 1.16.51.83.81.51 1.14.18h19.18V45.4l-.01-.01zM224.76 48.36l-11.25-24.56-.51-1.1-.55-.85-.69-.61-.85-.37-1-.12h-2.95L194.38 48.36h3.49l3.19-7.09 1.3-2.85h-.02l6.48-14.28.12-.24.14-.1h.34l.12.1.12.24 6.48 14.28h-11.74l-1.28 2.85h14.34l3.19 7.09h4.08l-.03-.01zM192.5 29.87l-.02-1.81-.16-1.58-.27-1.34-.39-1.12-.69-1.08-1.02-.85-1.34-.61-1.67-.37-1.24-.16-1.4-.12-1.58-.06-1.75-.02H174.61v2.93h7.84l1.1.04.96.06.83.08 1.24.3.96.57.63.79.32 1.06.12.67.06.79.06.87v1.89l-.04.81-.06.71-.1.63-.3 1.12-.63.85-.96.59-1.26.3-.83.1-1.07.06H172.73V20.73h-3.76v27.61h3.76v-9.41h8.25l2.01-.02 1.81-.1 1.56-.16 1.34-.24 1.12-.3 1.24-.59.96-.83.69-1.1.45-1.32.14-.93.12-1.06.06-1.16.02-1.26v-.01zM161.45 45.51H143.25l-.26-.04-.18-.1-.12-.16-.04-.26V23.56h18.41v-2.8H138.89v25.29l.14 1.02.43.71.71.45.99.14h19.3v-2.84l-.01-.02zm-.95-12.96H144.53v2.72H160.5v-2.72zm-29.14 12.96H113.14l-.24-.04-.2-.1-.1-.16-.04-.26V23.56h18.41v-2.8H108.8v25.29l.14 1.02.43.71.71.45.99.14h19.3v-2.84l-.01-.02zM130.38 32.55H114.43v2.72h15.95v-2.72zm-29.13 1.95v-2.09l-.1-1.91-.2-1.69-.26-1.5-.37-1.28-.69-1.5-.97-1.24-1.26-.96-1.52-.67-1.3-.35-1.5-.26-1.71-.18-1.93-.1-2.11-.02H79.22v2.93h7.88l2.17.04 1.87.12 1.52.22 1.22.31.89.39.91.75.73 1.1.51 1.44.28 1.75.08.93.04 1.08.04 1.28v1.42l-.04 2.32-.12 1.97-.2 1.65-.28 1.28-.39.96-.71.93-1 .73-1.32-.53-1.54-.32-.94-.1-1.1-.06-1.26-.04H77.32V20.76h-3.76v27.61h14.04l2.09-.02 1.89-.1 1.69-.2 1.5-.28 1.32-.37 1.12-.47 1.12-.73.91-.93.75-1.16.53-1.38.32-1.28.22-1.44.18-1.65.08-1.83.02-2.01v-.01z"/>
</svg>
