<svg version="1.1" xmlns="http://www.w3.org/2000/svg" viewBox="0 0 992 254" xml:space="preserve">
<!-- R letter -->
<path fill="#231B18" d="
M574.401855,158.504425
	C570.978943,159.866669 567.870178,161.018814 564.299255,162.342255
	C576.745667,178.918762 589.008911,195.251404 601.745422,212.214264
	C599.886414,212.401855 598.690979,212.624100 597.494934,212.627243
	C586.996094,212.654724 576.494385,212.509354 565.999878,212.723648
	C562.794495,212.789093 560.845825,211.751968 558.965576,209.206223
	C548.578674,195.142853 537.961609,181.249542 527.565552,167.192810
	C525.797791,164.802597 523.954224,163.902451 520.967346,163.913254
	C489.637573,164.026657 458.307281,163.983292 426.977112,163.983292
	C425.174377,163.983292 423.371643,163.983292 421.301361,163.983292
	C421.301361,153.073013 421.301361,142.476410 421.301361,131.160278
	C422.972809,131.160278 424.728882,131.160309 426.484985,131.160278
	C467.147522,131.159790 507.810089,131.193878 548.472595,131.140488
	C563.222351,131.121109 572.851562,122.825638 574.504272,108.990799
	C575.985046,96.595619 566.079651,84.257042 553.596130,82.990906
	C551.775940,82.806290 549.937500,82.726646 548.107483,82.726112
	C498.945801,82.711807 449.784149,82.714211 400.622467,82.713791
	C399.499603,82.713776 398.376709,82.713791 396.764282,82.713791
	C396.764282,104.579659 396.764282,126.025993 396.764282,147.472321
	C396.764282,168.950729 396.764282,190.429123 396.764282,212.274658
	C385.891998,212.274658 375.313019,212.274658 364.354187,212.274658
	C364.354187,158.376526 364.354187,104.361397 364.354187,49.950768
	C365.863892,49.950768 367.320679,49.950768 368.777466,49.950771
	C428.438080,49.950935 488.098724,49.949394 547.759338,49.952244
	C567.016479,49.953167 582.970947,56.857510 595.266663,72.045151
	C614.004089,95.189438 610.213440,132.060272 586.838623,150.482468
	C583.080139,153.444656 578.770752,155.707947 574.401855,158.504425
z"/>
<!-- O letter (compound: outer + inner hole via evenodd) -->
<path fill="#231B18" fill-rule="evenodd" d="
M248.623016,203.667740
	C236.188431,210.014587 223.245255,212.604126 209.756821,212.624954
	C177.442856,212.674866 145.128082,212.775131 112.814919,212.606079
	C72.534554,212.395370 41.328888,188.043304 31.635584,149.572144
	C20.276424,104.489487 52.754814,56.866783 98.890686,50.950153
	C99.880310,50.823242 100.862595,50.488598 101.847069,50.493607
	C143.123444,50.703594 184.399689,50.941322 225.675949,51.175598
	C257.483276,57.883144 279.535004,76.267174 289.128937,107.378876
	C298.791321,138.712448 291.048584,166.624435 267.817780,189.744308
	C262.367767,195.168289 255.281525,198.948196 248.623016,203.667740
z
M218.884491,179.081055
	C212.967789,179.380554 207.488876,179.868317 202.008759,179.882645
	C172.529144,179.959702 143.049194,179.947739 113.569450,179.905991
	C100.327812,179.887238 88.567177,176.048035 78.289902,167.248932
	C54.436256,146.826126 58.269779,105.362045 85.599289,89.837646
	C92.826805,85.732094 100.401711,82.945114 108.739868,82.936058
	C144.376282,82.897369 180.027496,82.370117 215.644272,83.227585
	C240.055786,83.815300 259.135834,104.859268 260.086731,129.906311
	C260.997284,153.888885 242.992722,175.594345 218.884491,179.081055
z"/>
<!-- A letter -->
<path fill="#231B18" d="
M917.096436,134.871811
	C931.131653,160.745071 945.015991,186.282059 959.348083,212.642578
	C949.237976,212.642578 939.801453,212.043243 930.481140,212.826324
	C922.582336,213.489944 918.370178,210.909500 914.923889,203.661453
	C908.509827,190.171661 900.864136,177.267502 893.614502,163.904541
	C844.484314,163.904541 795.381836,163.904541 745.494812,163.904541
	C751.398560,153.042984 756.910156,142.679092 762.749329,132.503220
	C763.339783,131.474319 765.907104,131.216568 767.558228,131.213120
	C801.556763,131.141830 835.555481,131.159500 869.554199,131.159500
	C871.332092,131.159500 873.109985,131.159500 876.466980,131.159500
	C868.694519,118.099953 862.163818,105.589714 854.115479,94.146904
	C848.792786,86.579353 839.995850,83.064812 830.540649,82.917801
	C814.546082,82.669128 798.543274,82.593277 782.548706,82.806671
	C768.072571,82.999825 757.713379,90.166885 750.886169,102.749939
	C738.596741,125.400055 726.285950,148.038589 713.987000,170.683548
	C707.004578,183.539581 700.087524,196.431946 692.966980,209.210968
	C692.150940,210.675476 690.233276,212.462296 688.790955,212.494125
	C676.839478,212.757889 664.879700,212.643494 652.342834,212.643494
	C653.152649,210.846512 653.659363,209.497589 654.340454,208.243301
	C676.790405,166.895828 699.271851,125.565521 721.715210,84.214493
	C734.135071,61.331192 753.300720,49.884350 779.356506,49.943840
	C797.022400,49.984177 814.688477,49.944756 832.354431,49.952991
	C857.996643,49.964947 876.979492,61.271168 889.296631,83.712288
	C898.575989,100.618752 907.733643,117.592003 917.096436,134.871811
z"/>
</svg>
