<?xml version="1.0" encoding="UTF-8"?>
<svg id="_图层_1" data-name="图层 1" xmlns="http://www.w3.org/2000/svg" viewBox="0 0 154.21 170.36">
  <defs>
    <style>
      .cls-1 {
        fill: #fff;
      }
    </style>
  </defs>
  <path class="cls-1" d="M114.59,15.53C104.58,5.51,91.27,0,77.11,0s-27.47,5.51-37.49,15.53c-10.01,10.01-15.53,23.32-15.53,37.49,0,8.62,2.12,17.18,6.12,24.76,2.73,5.17,5.85,9.97,12.17,16.62,6.63,6.97,16.5,15.62,31.08,27.21,1,.8,2.04,1.11,3.01,1.11,1.26,0,2.41-.52,3.22-1.19,1.42-1.17,4.79-4.38,8.49-8.24,2.84-2.97,4.65-5.09,5.08-5.97,.45-.92,.56-1.63,.34-2.3-.13-.41-.23-.65-.43-1.03-.08-.14-.09-.26-.06-.36,.05-.12,.21-.23,.46-.31,10.53-3.46,19.59-10.01,26.2-18.94,6.75-9.13,10.33-19.97,10.33-31.35,0-14.16-5.52-27.47-15.53-37.49Zm-11.09,37.49c0,14.53-11.82,26.35-26.35,26.35s-26.35-11.82-26.35-26.35,11.82-26.35,26.35-26.35,26.35,11.82,26.35,26.35Z"/>
  <g>
    <path class="cls-1" d="M119.23,145.36h16.08c4.05,.06,8.1,.08,12.16,.16,1.02,.04,2.06-.03,3.06,.19,.91,.2,1.86,.47,2.56,1.12,.7,.63,1.06,1.58,1.09,2.51,.02,.96,.03,1.91,.04,2.87v.78c-.01,.79,0,1.58-.03,2.36-.02,.6,.06,1.23-.15,1.81-.27,.81-.97,1.41-1.76,1.69-.22,.09-.47,.11-.67,.25-.12,.08-.24,.17-.36,.26,.18,.2,.33,.44,.58,.54,.79,.37,1.52,.96,1.85,1.79,.31,.73,.2,1.53,.24,2.3,.02,1.86-.03,3.71-.05,5.57,0,.22-.08,.45-.26,.58-.22,.17-.51,.2-.78,.21h-4.58c-.28-.03-.56,0-.84-.03-.38-.02-.8,0-1.13-.22-.3-.21-.36-.6-.37-.94-.04-1.69,.02-3.38-.05-5.07-.03-.48-.09-.98-.34-1.4-.16-.29-.42-.51-.71-.66-.52-.27-1.07-.5-1.66-.54-5.55-.08-11.1-.12-16.65-.15-.27,0-.56-.01-.8,.13-.23,.17-.22,.48-.25,.74-.05,2.03-.07,4.07-.11,6.1-.04,.52,.05,1.05-.11,1.55-.11,.34-.52,.43-.83,.43-2.08,0-4.16-.06-6.25-.11-.32-.04-.68,.06-.98-.11-.26-.15-.3-.48-.3-.75,0-2.46,.02-4.92,.02-7.38,.03-.89,0-1.78,0-2.67,0-3.86-.02-7.73-.01-11.59,0-.56-.04-1.14,.11-1.69,.08-.28,.32-.5,.61-.55,.78-.14,1.58,0,2.37-.03l-.72-.06Zm6.55,5.38c-.26,.05-.34,.35-.34,.58-.01,1.63,0,3.26,0,4.89,0,.27,.08,.61,.38,.69,.4,.11,.83,.03,1.24,.07,3.92,0,7.84,.02,11.76,.02,1.73,0,3.47,.05,5.18-.19,.43-.06,.85-.26,1.14-.59,.27-.3,.41-.7,.46-1.1,.09-.81,.08-1.63,.02-2.45-.04-.47-.15-.96-.47-1.32-.32-.37-.81-.53-1.27-.6-.43-.08-.88-.05-1.32-.06-5.47,0-10.94,0-16.41,0-.13,0-.25,0-.37,.04Z"/>
    <path class="cls-1" d="M55.79,145.44c.96,0,1.92-.02,2.88-.02,3.94,.06,7.88,.12,11.82,.19,.56,.02,1.12,0,1.67,.11,1.01,.19,1.96,.7,2.66,1.44,.84,.87,1.31,2.05,1.37,3.25,.03,4.68,.04,9.36,0,14.03-.02,.63,.05,1.28-.1,1.9-.18,.81-.66,1.54-1.27,2.09-1.28,1.16-3.01,1.75-4.73,1.74-7.99,0-15.98,.01-23.98-.01-1.06,.02-2.13-.06-3.17-.3-.99-.21-1.97-.65-2.67-1.39-.66-.68-1.05-1.57-1.23-2.49-.15-.75-.16-1.52-.17-2.28-.06-2.71,0-5.41-.02-8.12,0-1.19,.01-2.39,.03-3.58,.02-.8,.1-1.6,.22-2.39,.12-.9,.45-1.79,1.08-2.47,.68-.75,1.66-1.16,2.64-1.33,1.18-.19,2.38-.31,3.58-.32,1.29-.03,2.58-.02,3.88-.03,1.84-.03,3.67-.02,5.51-.03Zm-1.35,5.07c-1.41,.02-2.82,.06-4.23,.19-.61,.04-1.23,.22-1.72,.61-.62,.49-.94,1.28-1.02,2.06-.06,.72-.05,1.44-.08,2.16,0,1.4-.06,2.8-.07,4.2,0,.59-.03,1.18,0,1.77,.02,.76-.03,1.53,.18,2.27,.12,.42,.38,.82,.78,1.02,.61,.31,1.32,.31,1.98,.32,3.31,0,6.63,0,9.94,0,1.52,.02,3.03,0,4.55,0,.63,0,1.3-.01,1.87-.32,.38-.2,.65-.57,.79-.97,.23-.65,.21-1.35,.21-2.03,0-2.39,0-4.77,0-7.16-.01-.87-.06-1.77-.4-2.59-.2-.48-.55-.91-1.03-1.13-.71-.35-1.52-.33-2.3-.34-3.15-.03-6.31-.08-9.46-.05Z"/>
    <path class="cls-1" d="M.16,145.75c.12-.22,.4-.27,.63-.27,10.26,0,20.52,0,30.79,0,.95,.01,1.9,.2,2.78,.57,.75,.33,1.48,.76,2.01,1.4,.51,.6,.79,1.39,.81,2.18,.01,2.39-.04,4.77-.15,7.16-.03,.75-.49,1.42-1.06,1.89-1.13,.92-2.58,1.46-4.05,1.4-6.61,0-13.22,0-19.82,0-.61,0-1.21-.01-1.82,.01-.46,0-.93-.07-1.37,.05-.26,.08-.31,.38-.31,.62-.04,2.08,0,4.17-.05,6.25,.01,.82-.05,1.64-.1,2.45-.02,.23-.01,.48-.15,.67-.16,.19-.43,.19-.65,.22H.82c-.2-.03-.42-.05-.6-.16-.21-.16-.18-.45-.21-.68v-22.85c.02-.31,.01-.64,.16-.92Zm8.76,4.96c-.19,.02-.34,.19-.33,.38-.02,1.35,0,2.7,.02,4.04,0,.16,.01,.34,.11,.48,.11,.17,.32,.24,.51,.26,3.89,.03,7.78,.03,11.67,.06,2.18,0,4.37,.04,6.54-.08,.35-.03,.72-.1,.98-.35,.26-.26,.34-.64,.37-.99,.08-.91,0-1.83-.08-2.73-.02-.32-.19-.63-.47-.79-.38-.22-.83-.22-1.25-.27-2.03,0-4.06,0-6.09,0-2.1,0-4.19-.02-6.29,0-1.73,0-3.45,0-5.18,0-.17,0-.34,0-.5,.02Z"/>
    <path class="cls-1" d="M78.1,145.71c.3-.25,.72-.2,1.08-.22,11.65,0,23.29,0,34.94,0,.31,.01,.68-.02,.91,.22,.2,.22,.14,.54,.14,.81,0,1.15,0,2.3,0,3.45,0,.14-.03,.3-.13,.41-.13,.14-.34,.18-.52,.18-.4,0-.79,0-1.19,.01-6.46,.03-12.92,.02-19.37,0-.64,0-1.29,.01-1.93-.01-1.59,0-3.18,0-4.78,0-.22,0-.48,.01-.65,.18-.16,.17-.17,.43-.17,.65,0,1.21-.02,2.42,0,3.64,.02,.2,.02,.44,.18,.58,.18,.13,.42,.12,.64,.13,5.38,0,10.76,0,16.14-.01,3.2,.03,6.39,0,9.59,.02,.19,.01,.45,0,.56,.19,.11,.23,.08,.49,.09,.73,0,.81,0,1.63-.02,2.44-.01,.25-.04,.56-.27,.71-.27,.15-.58,.12-.87,.12-8.37,0-16.74,0-25.11,0-.24,.01-.51,0-.71,.16-.19,.16-.2,.44-.22,.67,0,1.29,0,2.58-.01,3.87-.01,.27,.22,.5,.49,.47,2.86,.01,5.72,0,8.58,0,6.21,0,12.42,0,18.63,0,.3,.03,.67-.03,.9,.2,.19,.25,.14,.59,.16,.89,0,.91,.02,1.82,0,2.73,0,.35,.03,.72-.12,1.05-.17,.32-.58,.32-.89,.37h-1.64c-.77-.07-1.55,0-2.33-.06-3.18,0-6.36-.04-9.54-.03-1.36,0-2.73-.01-4.09,0-.06,0-.09,.02-.1,.09h-17.62c-.24-.03-.49-.05-.7-.16-.27-.17-.27-.52-.28-.8-.02-7.58,0-15.15-.02-22.73,.01-.33,0-.71,.25-.96Z"/>
  </g>
</svg>