<?xml version="1.0" encoding="UTF-8"?>
<svg id="_图层_1" data-name="图层 1" xmlns="http://www.w3.org/2000/svg" viewBox="0 0 100.28 130.82">
  <defs>
    <style>
      .cls-1 {
        fill: #fff;
      }
    </style>
  </defs>
  <path class="cls-1" d="M99.86,9.4c-.08-1.59-.16-3.05-.73-4.25h0s0,0,0,0c-.76-1.61-2.41-2.76-6.11-3.13C75.93,.32,67.95,0,50.16,0h-.01C32.35,0,24.6,.29,7.26,2.01c-3.71,.37-5.35,1.52-6.12,3.14h0c-.56,1.2-.65,2.65-.72,4.24C-.51,28.87,.05,81.86,2.64,111.67c.3,3.44,.46,7.1,.96,10.13,.76,4.59,2.67,5.88,6.32,6.64,6.36,1.32,18.84,2.38,40.2,2.38s33.87-1.05,40.24-2.37c3.64-.76,5.56-2.05,6.32-6.64,.5-3.03,.66-6.69,.96-10.14,2.59-29.81,3.16-82.8,2.22-102.28M4.89,11.55c.11-2.39-.25-4.1,1.68-5.4l28.16,5.08c.97-.55,14.97-.56,15.41-.56h0c.44,0,14.45,0,15.41,.56l27.93-5.11c1.94,1.31,1.61,3.05,1.73,5.44,.29,6.02,.43,15.38,.4,26.25v.19s-22.36,1.57-22.36,1.57c-5.55,.52-6.2,1.94-6.22,4.5,0,0-.26,17.54-.41,23.69-.22,8.76-.96,21.81-.98,22.24-.06,2.09-1.48,3.63-3.48,3.8,0,0-7.13,.26-12.01,.22h0s-.1,0-.1,0h-.1c-4.88,.04-12.01-.22-12.01-.22-2-.17-3.42-1.7-3.48-3.8-.01-.43-.76-13.48-.98-22.24-.15-6.16-.41-23.69-.41-23.69-.01-2.56-.67-3.98-6.22-4.5l-22.36-1.79c-.03-10.86,.11-20.21,.4-26.22M50.05,97.85h.1s0,0,0,0l11.14-.11c8.69,.05,7.83-.7,8.99-8.34,.29-1.91,4.32-44.94,4.32-44.94,.14-1,.68-1.41,1.46-1.52l18.91-2.49c.35-.05,.66,.23,.65,.59,0,0-1.55,71.22-3.54,79.87-.43,1.87-.91,2.3-2.54,2.68,0,0-9.53,2.25-39.48,2.27-29.95-.02-39.48-2.27-39.48-2.27-1.63-.38-2.11-.81-2.54-2.68-1.99-8.65-3.54-79.87-3.54-79.87-.01-.35,.29-.63,.65-.59l18.91,2.49c.78,.1,1.33,.52,1.46,1.52,0,0,4.02,43.03,4.31,44.94,1.16,7.64,.3,8.39,8.99,8.34l11.14,.11h0s.1,0,.1,0Z"/>
  <path class="cls-1" d="M41.78,105.88c-.04-.06-.11-.1-.18-.1h-3.04c-.07,0-.14,.04-.18,.1l-6.33,9.4c-.05,.07,0,.16,.09,.16h2.96c.07,0,.14-.04,.18-.1l1.63-2.42c.08-.12,.21-.18,.35-.18h5.65c.14,0,.27,.07,.35,.18l1.63,2.42c.04,.06,.11,.1,.18,.1h2.96c.08,0,.13-.09,.09-.16l-6.33-9.4Zm-.06,5.35h-3.27c-.17,0-.27-.19-.18-.33l1.64-2.43c.08-.12,.27-.12,.35,0l1.64,2.43c.1,.14,0,.33-.17,.33"/>
  <path class="cls-1" d="M31.93,105.79h-15.18c-.08,0-.13,.09-.09,.16l.79,1.17c.08,.12,.21,.19,.35,.19h4.88c.12,0,.21,.1,.21,.21v7.81c0,.07,.05,.12,.12,.12h2.66c.07,0,.12-.05,.12-.12v-7.81c0-.12,.1-.21,.21-.21h4.89c.14,0,.27-.07,.35-.19l.79-1.17c.05-.07,0-.16-.09-.16"/>
  <path class="cls-1" d="M65.94,105.79h-2.66c-.06,0-.12,.05-.12,.12v6.76c0,.09-.1,.14-.17,.08l-8.78-6.86c-.08-.06-.18-.1-.28-.1h-2.62c-.06,0-.12,.05-.12,.12v9.42c0,.07,.05,.12,.12,.12h2.66c.06,0,.12-.05,.12-.12v-6.76c0-.09,.1-.14,.17-.08l8.78,6.86c.08,.06,.18,.1,.28,.1h2.62c.06,0,.12-.05,.12-.12v-9.42c0-.06-.05-.12-.12-.12"/>
  <path class="cls-1" d="M84.26,115.32l-6.35-5.25c-.06-.05-.06-.15,.01-.19l6.34-3.98c.05-.03,.03-.12-.03-.12h-3.25c-.11,0-.22,.03-.32,.09l-6.9,4.33c-.08,.05-.18,0-.18-.1v-4.21c0-.06-.05-.12-.12-.12h-2.66c-.07,0-.12,.05-.12,.12v9.42c0,.06,.05,.12,.12,.12h2.66c.07,0,.12-.05,.12-.12v-2.59c0-.07,.04-.14,.1-.18l2.25-1.41c.08-.05,.18-.04,.25,.02l5.04,4.15c.11,.09,.24,.14,.38,.14h2.63c.06,0,.09-.08,.04-.12"/>
</svg>